{"title":"Dracula Untold [2014] (No Cinavia) &amp; BluRay Xtras 1080p","uid":11791911,"size":5843955013,"categoryP":"video","categoryS":"hd___movies","magnet":"?xt=urn:btih:ca57e250b9f1399928497e094e1cc74442b9ec0f&amp;dn=Dracula+Untold+%5B2014%5D+%28No+Cinavia%29+%26amp%3B+BluRay+Xtras+1080p&amp;tr=udp%3A%2F%2Ftracker.openbittorrent.com%3A80&amp;tr=udp%3A%2F%2Fopen.demonii.com%3A1337&amp;tr=udp%3A%2F%2Ftracker.coppersurfer.tk%3A6969&amp;tr=udp%3A%2F%2Fexodus.desync.com%3A6969","seeders":4,"leechers":1,"uploader":"AlienMethod","files":25,"time":1427987156,"description":"x264/mp4\nCinavia Removed/CinExHD\n6-Channel AC3@640kbps (audio 1)\n2-Channel AAC@128kbps (audio 2)\nEnglish Subs Incl.\n\n\n&quot;As his kingdom is being threatened by the Turks, young prince Vlad\nTepes must become a monster feared by his own people in order to obtain the\npower needed to protect his own family, and the families of his kingdom.&quot;\n\n\n\nGeneral\nComplete name : F:TorrentsDracula Untold [2014] (NoCinavia) &amp; BluRay Xtras 1080p\nDracula Untold [2014] (NoCinavia) 1080p.mp4\nFormat : MPEG-4\nFormat profile : Base Media\nCodec ID : isom\nFile size : 3.91 GiB\nDuration : 1h 32mn\nOverall bit rate mode : Variable\nOverall bit rate : 6 077 Kbps\nEncoded date : UTC 2015-04-01 12:24:34\nTagged date : UTC 2015-04-01 12:24:34\nWriting application : My MP4Box GUI 0.6.0.6 \n\nVideo\nID : 1\nFormat : AVC\nFormat/Info : Advanced Video Codec\nFormat profile : &lt;a class=&quot;__cf_email__&quot; href=&quot;/cdn-cgi/l/email-protection&quot; data-cfemail=&quot;f0b8999798b0bcc4dec0&quot;&gt;[email&amp;#160;protected]&lt;/a&gt;&lt;script cf-hash='f9e31' type=&quot;text/javascript&quot;&gt;\n/* &lt;![CDATA[ */!function(){try{var t=&quot;currentScript&quot;in document?document.currentScript:function(){for(var t=document.getElementsByTagName(&quot;script&quot;),e=t.length;e--;)if(t[e].getAttribute(&quot;cf-hash&quot;))return t[e]}();if(t&amp;&amp;t.previousSibling){var e,r,n,i,c=t.previousSibling,a=c.getAttribute(&quot;data-cfemail&quot;);if(a){for(e=&quot;&quot;,r=parseInt(a.substr(0,2),16),n=2;a.length-n;n+=2)i=parseInt(a.substr(n,2),16)^r,e+=String.fromCharCode(i);e=document.createTextNode(e),c.parentNode.replaceChild(e,c)}}}catch(u){}}();/* ]]&gt; */&lt;/script&gt;\nFormat settings, CABAC : Yes\nFormat settings, ReFrames : 4 frames\nCodec ID : avc1\nCodec ID/Info : Advanced Video Coding\nDuration : 1h 32mn\nBit rate : 5 309 Kbps\nMaximum bit rate : 29.8 Mbps\nWidth : 1 920 pixels\nHeight : 800 pixels\nDisplay aspect ratio : 2.40:1\nFrame rate mode : Constant\nFrame rate : 23.976 fps\nColor space : YUV\nChroma subsampling : 4:2:0\nBit depth : 8 bits\nScan type : Progressive\nBits/(Pixel*Frame) : 0.144\nStream size : 3.42 GiB (87%)\nTitle : Dracula Untold (VideoEncode)_track1_und.h264\nWriting library : x264 core 142 r2479 dd79a61\nEncoded date : UTC 2015-04-01 12:24:34\nTagged date : UTC 2015-04-01 12:24:56\n\nAudio #1\nID : 2\nFormat : AC-3\nFormat/Info : Audio Coding 3\nMode extension : CM (complete main)\nFormat settings, Endianness : Big\nCodec ID : ac-3\nDuration : 1h 32mn\nBit rate mode : Constant\nBit rate : 640 Kbps\nChannel(s) : 6 channels\nChannel positions : Front: L C R, Side: L R, LFE\nSampling rate : 48.0 KHz\nBit depth : 16 bits\nCompression mode : Lossy\nStream size : 422 MiB (11%)\nTitle : Dracula Untold (CinEx)AC3.ac3\nEncoded date : UTC 2015-04-01 12:24:48\nTagged date : UTC 2015-04-01 12:24:56\n\nAudio #2\nID : 3\nFormat : AAC\nFormat/Info : Advanced Audio Codec\nFormat profile : LC\nCodec ID : 40\nDuration : 1h 32mn\nBit rate mode : Variable\nBit rate : 124 Kbps\nMaximum bit rate : 159 Kbps\nChannel(s) : 2 channels\nChannel positions : Front: L R\nSampling rate : 48.0 KHz\nCompression mode : Lossy\nStream size : 81.7 MiB (2%)\nTitle : Dracula Untold (CinEx)AAC.m4a\nEncoded date : UTC 2015-04-01 12:24:55\nTagged date : UTC 2015-04-01 12:24:56\n\nm/ AM m/","torrent":{"xt":"urn:btih:ca57e250b9f1399928497e094e1cc74442b9ec0f","amp;dn":"Dracula+Untold+%5B2014%5D+%28No+Cinavia%29+%26amp%3B+BluRay+Xtras+1080p","amp;tr":["udp%3A%2F%2Ftracker.openbittorrent.com%3A80","udp%3A%2F%2Fopen.demonii.com%3A1337","udp%3A%2F%2Ftracker.coppersurfer.tk%3A6969","udp%3A%2F%2Fexodus.desync.com%3A6969"],"infoHash":"ca57e250b9f1399928497e094e1cc74442b9ec0f","infoHashBuffer":{"type":"Buffer","data":[202,87,226,80,185,241,57,153,40,73,126,9,78,28,199,68,66,185,236,15]},"announce":[],"urlList":[]}}